<svg xmlns="http://www.w3.org/2000/svg" viewBox="0 0 1287.63 1041"><defs><style>.cls-1{fill:#fff;}</style></defs><title>CIRCUITS</title><g id="Layer_2" data-name="Layer 2"><g id="CIRCUITS"><g id="CIRCUITS-2" data-name="CIRCUITS"><path class="cls-1" d="M1224.11,217.88H63.52A63.52,63.52,0,0,0,0,281.4V431.23A75.87,75.87,0,0,1,75.65,507.1v19.24A75.86,75.86,0,0,1,0,602.2V759.6a63.52,63.52,0,0,0,63.52,63.52H1224.11a63.52,63.52,0,0,0,63.52-63.52V281.4A63.52,63.52,0,0,0,1224.11,217.88ZM104.4,762.59a40.85,40.85,0,1,1,40.86-40.85A40.85,40.85,0,0,1,104.4,762.59Z"/><rect class="cls-1" x="134.66" width="174" height="174" rx="21.94"/><rect class="cls-1" x="437.28" width="174" height="174" rx="21.94"/><rect class="cls-1" x="717.2" width="174" height="174" rx="21.94"/><rect class="cls-1" x="997.12" width="174" height="174" rx="21.94"/><rect class="cls-1" x="125.59" y="867" width="174" height="174" rx="21.94"/><rect class="cls-1" x="428.2" y="867" width="174" height="174" rx="21.94"/><rect class="cls-1" x="708.12" y="867" width="174" height="174" rx="21.94"/><rect class="cls-1" x="988.04" y="867" width="174" height="174" rx="21.94"/></g></g></g></svg>