<svg xmlns="http://www.w3.org/2000/svg" viewBox="0 0 1001.6 986.95"><defs><style>.cls-1{fill:#fff;}</style></defs><title>HOME</title><g id="Layer_2" data-name="Layer 2"><g id="HOME"><g id="HOME-2" data-name="HOME"><path class="cls-1" d="M973.12,360.6,548.9,17a76.41,76.41,0,0,0-96.2,0L28.48,360.6c-56,45.33-23.92,135.82,48.1,135.82h54.23V849.8a83.65,83.65,0,0,0,83.65,83.65H788.91a83.65,83.65,0,0,0,83.65-83.65V496.42H925C997,496.42,1029.09,405.93,973.12,360.6ZM404.81,910.52V700.93a28.11,28.11,0,0,1,28.1-28.11H606a28.11,28.11,0,0,1,28.1,28.11V910.52Z"/><rect class="cls-1" x="393.35" y="964.02" width="279.73" height="22.93" rx="0.58"/></g></g></g></svg>