<svg xmlns="http://www.w3.org/2000/svg" viewBox="0 0 964 1031.89"><defs><style>.cls-1{fill:#fff;}</style></defs><title>LECTURE</title><g id="Layer_2" data-name="Layer 2"><g id="LECTURE"><g id="LECTURE-2" data-name="LECTURE"><rect class="cls-1" y="107.39" width="230.82" height="140.71" rx="34.35"/><rect class="cls-1" y="330.8" width="230.82" height="140.71" rx="34.35"/><rect class="cls-1" y="554.21" width="230.82" height="140.71" rx="34.35"/><rect class="cls-1" y="777.62" width="230.82" height="140.71" rx="34.35"/><path class="cls-1" d="M912.13,0H166.66a51.87,51.87,0,0,0-51.87,51.87V91.34h87.89a43,43,0,0,1,42.95,42.95v86.9a43,43,0,0,1-42.95,42.95H114.79v50.61h87.89a43,43,0,0,1,42.95,42.95v86.9a43,43,0,0,1-42.95,42.95H114.79v50.61h87.89a43,43,0,0,1,42.95,43V668a43,43,0,0,1-42.95,43H114.79v50.6h87.89a43,43,0,0,1,42.95,42.95v86.9a43,43,0,0,1-42.95,43H114.79V980a51.87,51.87,0,0,0,51.87,51.87H912.13A51.87,51.87,0,0,0,964,980V51.87A51.87,51.87,0,0,0,912.13,0Zm-86,635.07H673.84V565.23h23.28v-163L609,635.07H565.4L478.15,404.36V565.23h23.07v69.84h-113V565.23h22.45V413.17H387.54V343.32h176l43,112.63,44-112.63H825.48v69.85H802.61V565.23H826.1Z"/></g></g></g></svg>