<svg xmlns="http://www.w3.org/2000/svg" viewBox="0 0 949.64 949.64"><defs><style>.cls-1{fill:#4d4d4d;}.cls-2{fill:#333;}.cls-3{fill:#f2f2f2;}</style></defs><title>LOGO-BG</title><g id="Layer_2" data-name="Layer 2"><g id="MGC_TECH" data-name="MGC TECH"><rect class="cls-1" width="949.64" height="949.64" rx="56.37"/><path class="cls-2" d="M949.64,893.27V536.92L697.77,285.05A314.2,314.2,0,0,0,464.1,181.29c-174,0-315,141-315,315a314,314,0,0,0,90.8,221.25l-.3.3L471.36,949.64H893.27A56.37,56.37,0,0,0,949.64,893.27Z"/><g id="MGC_TECH-2" data-name="MGC TECH"><path class="cls-3" d="M193.58,745.84a.44.44,0,0,0-.63,0L141.28,797.5a.47.47,0,0,0,0,.64l.09.08,30.6,0,36.67-36.66a.47.47,0,0,0,0-.64Z"/><path class="cls-3" d="M445.73,547.34l-38.82-38.82a2,2,0,0,0-2.91,0L189.68,722.83a2.08,2.08,0,0,0,0,2.92l38.83,38.82a2.06,2.06,0,0,0,2.91,0L445.73,550.26A2.06,2.06,0,0,0,445.73,547.34Zm-58.64,29.08a6.39,6.39,0,1,1,0-9A6.39,6.39,0,0,1,387.09,576.42Zm5.71-23.77a6.39,6.39,0,1,1,0-9A6.4,6.4,0,0,1,392.8,552.65Zm18.07,18.06a6.39,6.39,0,1,1,0-9A6.39,6.39,0,0,1,410.87,570.71Zm5.7-23.77a6.39,6.39,0,1,1,0-9A6.37,6.37,0,0,1,416.57,546.94Z"/><path class="cls-3" d="M477.71,558.49c.76-17.88,18.53-37.7,80.74-99.92L491,391.14c-62.28,62.29-82,80.05-99.85,80.83l86.53,86.52Z"/><polygon class="cls-3" points="568.02 449.97 762.07 242.33 707.68 187.95 500.04 381.99 568.02 449.97"/><rect class="cls-3" x="736.01" y="183.72" width="31.6" height="25.25" transform="translate(81.37 589.12) rotate(-45)"/><path class="cls-3" d="M822.56,149.8C799.21,142.93,768,173.49,768,173.49l7.72,7.73c25.58-28,48.24-23,48.24-23C827.88,151.69,822.56,149.8,822.56,149.8Z"/><path class="cls-3" d="M645.2,383.46A212.91,212.91,0,0,1,652.41,596l74.18,74.18a315.16,315.16,0,0,0-7.54-360.59Z"/><path class="cls-3" d="M464.55,283.16a211.82,211.82,0,0,1,98.19,24l75-75a315.22,315.22,0,0,0-352.5,4.13l74.48,74.48A211.83,211.83,0,0,1,464.55,283.16Z"/><path class="cls-3" d="M284.54,609.52a213,213,0,0,1-4.48-219.68L205.8,315.59a315.12,315.12,0,0,0,5.54,367.13Z"/><path class="cls-3" d="M464.55,708.79a211.81,211.81,0,0,1-121.37-38L270.5,743.47A315.1,315.1,0,0,0,648.6,751l-73.27-73.27A211.84,211.84,0,0,1,464.55,708.79Zm27.66,69.84H473.14v-8.75h2.92v-20.4l-11,29.15h-5.47l-10.92-28.89v20.14h2.89v8.75H437.37v-8.75h2.81v-19h-2.89V742.1h22l5.38,14.1,5.52-14.1h21.9v8.74h-2.86v19h2.94Z"/><path class="cls-3" d="M173.18,258.33l5.31,5.31,25.12,25.12,60.86-60.86-25.12-25.12L234,197.47l-4.36-4.36a22.41,22.41,0,0,0-31.69,0l-29.17,29.17a22.41,22.41,0,0,0,0,31.69Z"/><rect class="cls-3" x="206.46" y="267.87" width="86.07" height="12.78" transform="translate(-120.86 256.74) rotate(-45)"/><rect class="cls-3" x="231.66" y="293.07" width="86.07" height="12.78" transform="translate(-131.29 281.94) rotate(-45)"/><path class="cls-3" d="M736.59,705.26c-1.28,26-31.14,25.43-31.14,25.43,1,31.32-25.44,31.14-25.44,31.14l56.55,25.23,23.75-23.74Z"/><polygon class="cls-3" points="742.83 790.3 779.09 806.35 763.51 770.57 742.83 790.3"/><path class="cls-3" d="M416.88,448.31,287.76,319.19l-27.1,27.1L382.23,467.85C391.52,466.3,401.81,460.64,416.88,448.31Z"/><path class="cls-3" d="M696.65,728.08,501,532.47c-12.3,15.08-17.94,25.39-19.49,34.71l188,188S703.31,758.51,696.65,728.08Z"/><path class="cls-3" d="M452.28,416.19,321.52,285.43l-27.1,27.1L424.1,442.22C432.11,435.27,441.36,426.69,452.28,416.19Z"/><path class="cls-3" d="M533.14,497.05c-10.5,10.92-19.07,20.18-26,28.19L703.31,721.42s30.43,3.8,26.89-26.89l.21-.21Z"/></g></g></g></svg>