<svg xmlns="http://www.w3.org/2000/svg" viewBox="0 0 1011.71 978.13"><defs><style>.cls-1{fill:#1a1a1a;}</style></defs><title>MGC TECH</title><g id="Layer_2" data-name="Layer 2"><g id="MGC_TECH" data-name="MGC TECH"><g id="MGC_TECH-2" data-name="MGC TECH"><path class="cls-1" d="M77.53,882.78a.68.68,0,0,0-1,0L.2,959.17a.65.65,0,0,0,0,.94l.11.12,45.26,0L99.78,906a.66.66,0,0,0,0-.94Z"/><path class="cls-1" d="M450.35,589.29,393,531.89a3,3,0,0,0-4.31,0L71.76,848.77a3,3,0,0,0,0,4.31l57.4,57.4a3,3,0,0,0,4.31,0L450.35,593.6A3,3,0,0,0,450.35,589.29Zm-86.7,43a9.44,9.44,0,1,1,0-13.35A9.45,9.45,0,0,1,363.65,632.28Zm8.43-35.15a9.44,9.44,0,1,1,0-13.35A9.43,9.43,0,0,1,372.08,597.13Zm26.72,26.72a9.45,9.45,0,1,1,0-13.36A9.45,9.45,0,0,1,398.8,623.85Zm8.43-35.15a9.44,9.44,0,1,1,0-13.36A9.43,9.43,0,0,1,407.23,588.7Z"/><path class="cls-1" d="M497.63,605.77C498.76,579.34,525,550,617,458l-99.69-99.69C425.24,450.43,396,476.7,369.7,477.85L497.63,605.78Z"/><polygon class="cls-1" points="631.17 445.32 918.09 138.3 837.67 57.89 530.65 344.81 631.17 445.32"/><rect class="cls-1" x="879.56" y="51.63" width="46.73" height="37.33" transform="translate(214.75 659.05) rotate(-45)"/><path class="cls-1" d="M1007.53,1.49c-34.52-10.16-80.72,35-80.72,35l11.42,11.42c37.82-41.38,71.33-34,71.33-34C1015.4,4.28,1007.53,1.49,1007.53,1.49Z"/><path class="cls-1" d="M745.29,347A314.93,314.93,0,0,1,756,661.27L865.63,771a466,466,0,0,0-11.16-533.16Z"/><path class="cls-1" d="M478.18,198.68a313.35,313.35,0,0,1,145.19,35.44l110.9-110.9a466,466,0,0,0-521.2,6.1L323.19,239.45A313.17,313.17,0,0,1,478.18,198.68Z"/><path class="cls-1" d="M212,681.23a315,315,0,0,1-6.64-324.82L95.59,246.62a465.94,465.94,0,0,0,8.19,542.85Z"/><path class="cls-1" d="M478.18,828a313.1,313.1,0,0,1-179.46-56.19L191.25,879.28A465.89,465.89,0,0,0,750.31,890.4L642,782.06A313.22,313.22,0,0,1,478.18,828Zm40.9,103.27h-28.2V918.34h4.31V888.17l-16.31,43.1H470.8l-16.15-42.72v29.79h4.27v12.93H438V918.34h4.15V890.19h-4.27V877.25h32.58l8,20.86,8.15-20.86H519v12.94h-4.23v28.15h4.35Z"/><path class="cls-1" d="M47.36,162l7.85,7.85L92.35,207l90-90L145.19,79.83,137.34,72l-6.45-6.44a33.14,33.14,0,0,0-46.86,0L40.91,108.65a33.14,33.14,0,0,0,0,46.86Z"/><rect class="cls-1" x="96.56" y="176.06" width="127.26" height="18.89" transform="translate(-84.26 167.6) rotate(-45)"/><rect class="cls-1" x="133.82" y="213.32" width="127.26" height="18.89" transform="translate(-99.69 204.86) rotate(-45)"/><path class="cls-1" d="M880.42,822.78c-1.89,38.45-46,37.61-46,37.61,1.49,46.31-37.61,46.05-37.61,46.05l83.61,37.3,35.11-35.1Z"/><polygon class="cls-1" points="889.64 948.53 943.25 972.26 920.22 919.36 889.64 948.53"/><path class="cls-1" d="M407.7,442.86,216.78,251.94,176.71,292,356.45,471.76C370.19,469.46,385.4,461.09,407.7,442.86Z"/><path class="cls-1" d="M821.36,856.53,532.13,567.3c-18.18,22.29-26.53,37.54-28.81,51.32l278,278S831.21,901.52,821.36,856.53Z"/><path class="cls-1" d="M460,395.36,266.69,202,226.62,242.1,418.37,433.85C430.21,423.59,443.88,410.9,460,395.36Z"/><path class="cls-1" d="M579.6,514.93c-15.53,16.15-28.21,29.83-38.47,41.68L831.21,846.68s45,5.63,39.75-39.75l.32-.32Z"/></g></g></g></svg>