<svg xmlns="http://www.w3.org/2000/svg" viewBox="0 0 1033.34 1033.34"><defs><style>.cls-1{fill:#fff;}</style></defs><title>PROJECTS</title><g id="Layer_2" data-name="Layer 2"><g id="PROJECTS"><path id="PROJECTS-2" data-name="PROJECTS" class="cls-1" d="M1021.11,425.23,906,407.35a402.37,402.37,0,0,0-36.75-88.61L938,224.63a14.43,14.43,0,0,0-1.44-18.73L827.44,96.76a14.43,14.43,0,0,0-18.73-1.45L714.6,164.13A401.61,401.61,0,0,0,626,127.38L608.11,12.22A14.44,14.44,0,0,0,593.84,0H439.49a14.43,14.43,0,0,0-14.26,12.22L407.35,127.38a401.41,401.41,0,0,0-88.61,36.75L224.63,95.31a14.43,14.43,0,0,0-18.73,1.45L96.76,205.9a14.43,14.43,0,0,0-1.45,18.73l68.82,94.11a401.41,401.41,0,0,0-36.75,88.61L12.22,425.23A14.43,14.43,0,0,0,0,439.49V593.84a14.44,14.44,0,0,0,12.22,14.27L127.38,626a401.61,401.61,0,0,0,36.75,88.61L95.31,808.71a14.43,14.43,0,0,0,1.45,18.73L205.9,936.58A14.43,14.43,0,0,0,224.63,938l94.11-68.81A402.37,402.37,0,0,0,407.35,906l17.88,115.15a14.43,14.43,0,0,0,14.26,12.23H593.84a14.44,14.44,0,0,0,14.27-12.23L626,906a402.57,402.57,0,0,0,88.61-36.75L808.71,938a14.43,14.43,0,0,0,18.73-1.44L936.58,827.44A14.43,14.43,0,0,0,938,808.71L869.21,714.6A402.57,402.57,0,0,0,906,626l115.15-17.88a14.44,14.44,0,0,0,12.23-14.27V439.49A14.43,14.43,0,0,0,1021.11,425.23ZM516.67,696.66a180,180,0,1,1,180-180A180,180,0,0,1,516.67,696.66Z"/></g></g></svg>